<?xml version="1.0" encoding="UTF-8" standalone="no"?>
<!-- Created with Inkscape (http://www.inkscape.org/) -->

<svg
   xmlns:dc="http://purl.org/dc/elements/1.1/"
   xmlns:cc="http://creativecommons.org/ns#"
   xmlns:rdf="http://www.w3.org/1999/02/22-rdf-syntax-ns#"
   xmlns:svg="http://www.w3.org/2000/svg"
   xmlns="http://www.w3.org/2000/svg"
   version="1.0"
   width="512"
   height="512"
   id="svg2">
  <metadata
     id="metadata7">
    <rdf:RDF>
      <cc:Work
         rdf:about="">
        <dc:format>image/svg+xml</dc:format>
        <dc:type
           rdf:resource="http://purl.org/dc/dcmitype/StillImage" />
        <dc:title></dc:title>
      </cc:Work>
    </rdf:RDF>
  </metadata>
  <g
     id="layer"
     style="display:inline">
    <path
       d="m 256,-0.5 c -21.79513,12.553543 -40.71517,30.727782 -54.1875,54.0625 -13.47963,23.347371 -19.84948,48.83063 -19.8125,74 -21.76925,-12.59847 -47.0555,-19.8125 -74,-19.8125 -26.944505,0 -52.230744,7.21403 -74,19.8125 -0.03293,25.16532 6.332868,50.65263 19.8125,74 13.477848,23.34437 32.376876,41.6295 54.1875,54.1875 -21.810624,12.558 -40.709652,30.84313 -54.1875,54.1875 -13.479632,23.34737 -19.84543,48.83468 -19.8125,74 21.769256,12.59847 47.055495,19.8125 74,19.8125 26.9445,0 52.23075,-7.21403 74,-19.8125 -0.037,25.16937 6.33287,50.65263 19.8125,74 13.47233,23.33464 32.39237,41.50896 54.1875,54.0625 21.79513,-12.55354 40.71517,-30.72778 54.1875,-54.0625 13.47963,-23.34737 19.84948,-48.83063 19.8125,-74 21.76925,12.59847 47.0555,19.8125 74,19.8125 26.94451,0 52.23074,-7.21403 74,-19.8125 0.0329,-25.16524 -6.33286,-50.65263 -19.8125,-74 C 444.70966,286.59305 425.81062,268.308 404,255.75 c 21.81062,-12.558 40.70966,-30.84313 54.1875,-54.1875 13.47964,-23.34737 19.84543,-48.83468 19.8125,-74 -21.76926,-12.59847 -47.05549,-19.8125 -74,-19.8125 -26.9445,0 -52.23075,7.21403 -74,19.8125 0.037,-25.16937 -6.33287,-50.652629 -19.8125,-74 C 296.71517,30.227782 277.79513,12.053543 256,-0.5 z m 0,128.5 c 70.69245,0 128,57.30755 128,128 0,70.69245 -57.30755,128 -128,128 -70.69245,0 -128,-57.30755 -128,-128 0,-70.69245 57.30755,-128 128,-128 z"
       id="path1971"
       style="fill:#ff0000;fill-opacity:1;stroke:none" />
  </g>
</svg>
